<svg width="34" height="34" viewBox="0 0 34 34" fill="none" xmlns="http://www.w3.org/2000/svg">
<g opacity="0.9">
<path d="M10.6515 23.0488C1.88804 14.2839 2.30738 7.65529 6.31654 4.64913L7.20479 3.98755C7.43143 3.8208 7.68924 3.70127 7.96295 3.63606C8.23665 3.57085 8.52067 3.56128 8.79814 3.60792C9.07561 3.65457 9.34089 3.75647 9.57823 3.90758C9.81557 4.0587 10.0201 4.25595 10.1798 4.48763L12.4167 7.7063C12.716 8.13706 12.8455 8.66331 12.7801 9.18377C12.7147 9.70424 12.4591 10.1821 12.0625 10.5255L9.90921 12.387C9.37088 12.853 9.10738 13.56 9.34963 14.23C9.79729 15.4767 10.8839 17.6768 13.4537 20.2452C16.0235 22.815 18.2222 23.9016 19.4689 24.3507C20.1404 24.5915 20.8473 24.3295 21.3134 23.7897L23.1749 21.6392C23.5182 21.2426 23.9961 20.9871 24.5166 20.9217C25.037 20.8563 25.5633 20.9857 25.994 21.285L29.2184 23.5234C29.4498 23.6825 29.6469 23.8866 29.798 24.1234C29.9491 24.3602 30.051 24.6249 30.0978 24.9019C30.1446 25.1788 30.1352 25.4624 30.0703 25.7356C30.0054 26.0089 29.8862 26.2664 29.7199 26.4927L29.054 27.3895C26.0493 31.3958 19.4179 31.8137 10.6515 23.0488Z" fill="#454545"/>
</g>
</svg>
