<svg width="34" height="36" viewBox="0 0 34 36" fill="none" xmlns="http://www.w3.org/2000/svg">
<g clip-path="url(#clip0_35_551)">
<path d="M32.1915 0H1.80851C0.809851 0 0 0.857489 0 1.91489V34.0851C0 35.1425 0.809851 36 1.80851 36H32.1915C33.1905 36 34 35.1425 34 34.0851V1.91489C34 0.857489 33.1905 0 32.1915 0ZM24.2087 8.18196L21.5951 8.18311C19.5464 8.18311 19.1496 9.21409 19.1496 10.7272V14.0634H24.0366L24.0351 19.2887H19.1496V32.6976H14.0529V19.2887H9.79128V14.0634H14.0529V10.2098C14.0529 5.73779 16.6329 3.30243 20.4 3.30243L24.2087 3.30894V8.18196Z" fill="#656565"/>
</g>
<defs>
<clipPath id="clip0_35_551">
<rect width="34" height="36" fill="white"/>
</clipPath>
</defs>
</svg>
