<svg width="39" height="38" viewBox="0 0 39 38" fill="none" xmlns="http://www.w3.org/2000/svg">
<g clip-path="url(#clip0_35_545)">
<path d="M19.5 0C8.73112 0 0 8.50725 0 19C0 29.4928 8.73112 38 19.5 38C30.2689 38 39 29.4928 39 19C39 8.50725 30.2689 0 19.5 0ZM29.8366 25.2811L26.8011 25.3223C26.8011 25.3223 26.1462 25.4473 25.2899 24.871C24.154 24.111 23.0831 22.1334 22.2479 22.3899C21.4013 22.6528 21.4273 24.4324 21.4273 24.4324C21.4273 24.4324 21.4337 24.7459 21.2404 24.9502C21.0307 25.1702 20.6196 25.1481 20.6196 25.1481H19.2595C19.2595 25.1481 16.2598 25.3903 13.6159 22.705C10.7364 19.7774 8.19163 13.9998 8.19163 13.9998C8.19163 13.9998 8.04212 13.6357 8.20138 13.4488C8.38175 13.243 8.86762 13.2367 8.86762 13.2367L12.1176 13.2208C12.1176 13.2208 12.4231 13.2731 12.6441 13.4314C12.8245 13.5612 12.9269 13.8051 12.9269 13.8051C12.9269 13.8051 13.4517 15.1018 14.1489 16.2767C15.5074 18.5662 16.1379 19.0681 16.5994 18.8227C17.2721 18.4648 17.0706 15.5863 17.0706 15.5863C17.0706 15.5863 17.0836 14.5413 16.7326 14.0758C16.4596 13.7133 15.9461 13.6056 15.7219 13.5787C15.5382 13.5549 15.8372 13.1401 16.2272 12.9532C16.8123 12.6746 17.8457 12.6588 19.0661 12.6698C20.0168 12.6793 20.2914 12.7363 20.6619 12.825C21.7831 13.0894 21.4029 14.1091 21.4029 16.5553C21.4029 17.3391 21.2582 18.4411 21.8368 18.8037C22.087 18.9604 22.6964 18.8274 24.2158 16.3036C24.9389 15.1066 25.48 13.7006 25.48 13.7006C25.48 13.7006 25.5986 13.4504 25.7822 13.3428C25.9707 13.2319 26.2243 13.2668 26.2243 13.2668L29.6449 13.2462C29.6449 13.2462 30.6719 13.1258 30.8393 13.5802C31.0148 14.0553 30.4557 15.1652 29.0583 16.9813C26.7638 19.9643 26.5086 19.6872 28.4147 21.413C30.2348 23.0613 30.6101 23.8624 30.6735 23.9638C31.4259 25.1845 29.8366 25.2811 29.8366 25.2811Z" fill="#656565"/>
</g>
<defs>
<clipPath id="clip0_35_545">
<rect width="39" height="38" fill="white"/>
</clipPath>
</defs>
</svg>
