<svg width="38" height="38" viewBox="0 0 38 38" fill="none" xmlns="http://www.w3.org/2000/svg">
<g clip-path="url(#clip0_35_547)">
<path d="M31.7201 8.73858V8.73987C31.7201 10.0143 30.6745 11.0464 29.3864 11.0464C28.0982 11.0464 27.0527 10.013 27.0527 8.73987C27.0527 7.46543 28.0982 6.43331 29.3864 6.43331C30.6745 6.43459 31.7188 7.46543 31.7201 8.73858ZM19.0009 25.4101C15.4193 25.4101 12.5161 22.5407 12.5161 19.0008C12.5161 15.4608 15.4193 12.5914 19.0009 12.5914C22.5825 12.5914 25.4857 15.4608 25.4857 19.0008C25.4857 22.5394 22.5838 25.4088 19.0035 25.4088H19.0022L19.0009 25.4101ZM19.0009 9.12835C13.4838 9.12835 9.01233 13.5491 9.01233 19.0008C9.01233 24.4524 13.4851 28.8732 19.0009 28.8732C24.5179 28.8732 28.9894 24.4524 28.9894 19.0008C28.9894 19.0008 28.9894 19.0008 28.9894 18.9995C28.9894 13.5479 24.5179 9.12707 19.0009 9.12707C19.0009 9.12707 19.0009 9.12707 18.9996 9.12707L19.0009 9.12835ZM19.0009 3.23568C24.1936 3.23568 24.8124 3.26132 26.8633 3.34979C28.1644 3.36517 29.4019 3.60878 30.5474 4.03957L30.4734 4.01521C32.178 4.67166 33.5011 5.97944 34.1511 7.62056L34.1666 7.66416C34.5765 8.7232 34.8204 9.94763 34.836 11.2259V11.2323C34.9281 13.2607 34.9488 13.8697 34.9488 19.0033C34.9488 24.137 34.9242 24.7473 34.8295 26.7743C34.8048 28.0616 34.5571 29.2847 34.1225 30.4168L34.1472 30.3425C33.8125 31.2092 33.3169 31.9477 32.6904 32.5554L32.6891 32.5567C32.0755 33.1773 31.3283 33.667 30.4942 33.9786L30.4527 33.9927C29.3773 34.3979 28.1346 34.6389 26.8361 34.6543H26.8296C24.7644 34.7453 24.156 34.7658 18.9529 34.7658C13.7472 34.7658 13.1401 34.7415 11.0762 34.6479C9.76861 34.6235 8.52587 34.3786 7.37524 33.9491L7.45178 33.9735C6.57486 33.6478 5.82767 33.1568 5.21798 32.5349L5.21668 32.5336C4.58234 31.931 4.08421 31.1913 3.77158 30.363L3.75861 30.3233C3.34999 29.2616 3.10222 28.0346 3.07757 26.7525V26.7423C3.00493 24.7229 2.97898 24.0998 2.97898 18.9815C2.97898 13.8607 3.00493 13.2363 3.07757 11.1926C3.10222 9.90148 3.34869 8.67448 3.78326 7.53851L3.75861 7.61415C4.07902 6.74359 4.57845 6.00252 5.21538 5.40376L5.21798 5.4012C5.82507 4.77039 6.57357 4.27933 7.41286 3.97547L7.45308 3.96265C8.52068 3.55493 9.75434 3.31004 11.0438 3.28825H11.0528C13.1193 3.21645 13.7277 3.19209 18.9295 3.19209L19.0009 3.23568ZM19.0009 -0.226074C13.716 -0.226074 13.057 -0.201714 10.9815 -0.110682C9.27566 -0.0747828 7.65804 0.250878 6.16105 0.816298L6.25964 0.784245C4.91054 1.29325 3.7612 2.04843 2.81424 2.99977L2.81294 3.00105C1.84652 3.937 1.08375 5.07425 0.590812 6.34356L0.568759 6.40767C0.0291182 7.78981 -0.300374 9.3899 -0.335399 11.0592V11.0746C-0.43269 13.126 -0.452148 13.7774 -0.452148 19.0008C-0.452148 24.2242 -0.427501 24.8755 -0.335399 26.9269C-0.299077 28.6129 0.0304154 30.2117 0.602487 31.6913L0.570057 31.5938C1.60264 34.185 3.63797 36.1967 6.19218 37.1942L6.25964 37.2173C7.65804 37.7494 9.27696 38.075 10.9659 38.1109H10.9815C13.057 38.2071 13.716 38.2263 19.0009 38.2263C24.2857 38.2263 24.9447 38.2019 27.0203 38.1109C28.7261 38.0737 30.3437 37.7494 31.8407 37.1839L31.7421 37.2173C34.3638 36.1967 36.3991 34.185 37.4084 31.6605L37.4317 31.5938C37.9713 30.2117 38.2995 28.6116 38.3359 26.9423V26.9269C38.4332 24.8755 38.4526 24.2242 38.4526 19.0008C38.4526 13.7774 38.428 13.126 38.3359 11.0746C38.2982 9.38862 37.97 7.78981 37.398 6.31023L37.4317 6.40767C36.9154 5.07425 36.1527 3.93829 35.1888 3.00233L35.1875 3.00105C34.2406 2.04586 33.0899 1.29197 31.8057 0.804759L31.7408 0.782963C30.3424 0.249596 28.7235 -0.0760649 27.0345 -0.110682H27.019C24.9434 -0.206842 24.2844 -0.226074 18.9996 -0.226074H19.0009Z" fill="#656565"/>
</g>
<defs>
<clipPath id="clip0_35_547">
<rect width="38" height="38" fill="white"/>
</clipPath>
</defs>
</svg>
