<svg width="31" height="31" viewBox="0 0 31 31" fill="none" xmlns="http://www.w3.org/2000/svg">
<g opacity="0.9">
<path d="M24.2188 12.5938C24.2188 10.2814 23.3002 8.06375 21.6651 6.42866C20.03 4.79358 17.8124 3.875 15.5 3.875C13.1876 3.875 10.97 4.79358 9.33491 6.42866C7.69983 8.06375 6.78125 10.2814 6.78125 12.5938C6.78125 16.1704 9.64294 20.832 15.5 26.4159C21.3571 20.832 24.2188 16.1704 24.2188 12.5938ZM15.5 29.0625C8.39519 22.6048 4.84375 17.1139 4.84375 12.5938C4.84375 9.76754 5.96646 7.05708 7.96489 5.05864C9.96333 3.06021 12.6738 1.9375 15.5 1.9375C18.3262 1.9375 21.0367 3.06021 23.0351 5.05864C25.0335 7.05708 26.1562 9.76754 26.1562 12.5938C26.1562 17.1139 22.6048 22.6048 15.5 29.0625Z" fill="#454545"/>
<path d="M15.5 15.5C16.2708 15.5 17.01 15.1938 17.555 14.6488C18.1001 14.1038 18.4062 13.3645 18.4062 12.5938C18.4062 11.823 18.1001 11.0837 17.555 10.5387C17.01 9.99369 16.2708 9.6875 15.5 9.6875C14.7292 9.6875 13.99 9.99369 13.445 10.5387C12.8999 11.0837 12.5938 11.823 12.5938 12.5938C12.5938 13.3645 12.8999 14.1038 13.445 14.6488C13.99 15.1938 14.7292 15.5 15.5 15.5ZM15.5 17.4375C14.2154 17.4375 12.9833 16.9272 12.075 16.0188C11.1666 15.1104 10.6563 13.8784 10.6562 12.5938C10.6563 11.3091 11.1666 10.0771 12.075 9.1687C12.9833 8.26032 14.2154 7.75 15.5 7.75C16.7846 7.75 18.0167 8.26032 18.925 9.1687C19.8334 10.0771 20.3438 11.3091 20.3438 12.5938C20.3438 13.8784 19.8334 15.1104 18.925 16.0188C18.0167 16.9272 16.7846 17.4375 15.5 17.4375Z" fill="#454545"/>
</g>
</svg>
