<svg width="39" height="38" viewBox="0 0 39 38" fill="none" xmlns="http://www.w3.org/2000/svg">
<g clip-path="url(#clip0_35_549)">
<path d="M19.5 0C8.73112 0 0 8.50725 0 19C0 29.4928 8.73112 38 19.5 38C30.2689 38 39 29.4928 39 19C39 8.50725 30.2689 0 19.5 0ZM29.0777 13.0166L25.8765 27.7099C25.6409 28.7517 25.0039 29.0051 24.115 28.5143L19.24 25.0151L16.8902 27.2223C16.6628 27.5073 16.3101 27.6893 15.9152 27.6893C15.912 27.6893 15.9104 27.6893 15.9071 27.6893L16.2533 22.8538L25.2882 14.9023C25.6783 14.5651 25.2005 14.3735 24.6821 14.7108L13.52 21.5602L8.71 20.0972C7.67 19.7758 7.64075 19.0839 8.92937 18.5868L27.7241 11.5283C28.5984 11.2179 29.3589 11.7309 29.0761 13.0182L29.0777 13.0166Z" fill="#656565"/>
</g>
<defs>
<clipPath id="clip0_35_549">
<rect width="39" height="38" fill="white"/>
</clipPath>
</defs>
</svg>
