<svg width="200" height="200" viewBox="0 0 123 123" fill="none" xmlns="http://www.w3.org/2000/svg">
<path d="M61.5002 4.73077C68.5963 4.73077 74.3442 12.5129 80.6362 15.1858C86.9281 17.8587 96.7681 16.3921 101.546 21.454C106.324 26.516 105.118 35.8119 107.814 42.364C110.511 48.9162 118.269 54.4039 118.269 61.5C118.269 68.5962 110.487 74.344 107.814 80.636C105.142 86.9279 106.608 96.7679 101.546 101.546C96.4842 106.324 87.1883 105.165 80.6362 107.814C74.084 110.463 68.5963 118.269 61.5002 118.269C54.404 118.269 48.6562 110.487 42.3642 107.814C36.0723 105.141 26.2323 106.608 21.4542 101.546C16.6761 96.4841 17.8352 87.1881 15.186 80.636C12.5367 74.0839 4.73096 68.5962 4.73096 61.5C4.73096 54.4039 12.5131 48.656 15.186 42.364C17.8588 36.0721 16.3923 26.2321 21.4542 21.454C26.5162 16.676 35.8121 17.835 42.3642 15.1858C48.9163 12.5365 54.404 4.73077 61.5002 4.73077ZM61.5002 22.6604C53.8184 22.6604 46.3092 24.9383 39.9221 29.206C33.5349 33.4738 28.5567 39.5397 25.6171 46.6367C22.6774 53.7337 21.9082 61.5431 23.4069 69.0772C24.9055 76.6114 28.6046 83.5319 34.0364 88.9638C39.4683 94.3956 46.3888 98.0947 53.923 99.5933C61.4571 101.092 69.2665 100.323 76.3635 97.3831C83.4605 94.4435 89.5264 89.4653 93.7942 83.0781C98.0619 76.691 100.34 69.1818 100.34 61.5C100.309 51.2087 96.2066 41.3478 88.9295 34.0707C81.6524 26.7936 71.7915 22.6916 61.5002 22.6604ZM79.5244 44.3037L83.3327 47.899C83.7222 48.413 83.933 49.0401 83.933 49.6849C83.933 50.3297 83.7222 50.9569 83.3327 51.4708L59.324 78.2233C58.8494 78.7615 58.2622 79.1887 57.6041 79.4749C56.946 79.761 56.2331 79.899 55.5158 79.879C54.802 79.8751 54.0964 79.7263 53.4418 79.4417C52.7872 79.1571 52.1972 78.7426 51.7075 78.2233L38.7215 65.2846C38.4837 65.0808 38.2887 64.8317 38.1478 64.5519C38.007 64.2721 37.9231 63.9671 37.9011 63.6546C37.8791 63.3422 37.9194 63.0284 38.0196 62.7316C38.1199 62.4349 38.278 62.1609 38.485 61.9258L38.7215 61.6656L42.5771 58.0938C43.0415 57.5944 43.6833 57.2972 44.3646 57.2662C45.0459 57.2352 45.7121 57.473 46.2198 57.9283L46.3854 58.0938L55.5867 67.5554L75.9054 44.3746C76.3814 43.8953 77.0252 43.6199 77.7005 43.6067C78.3759 43.5934 79.03 43.8434 79.5244 44.3037Z" fill="#80B953"/>
</svg>
