<svg width="200" height="200" viewBox="0 0 99 99" fill="none" xmlns="http://www.w3.org/2000/svg">
<g clip-path="url(#clip0_15_110)">
<path d="M97.0279 47.5279H75.0056V26.0318C75.0056 24.9428 74.1228 24.0597 73.0336 24.0597H51.5378V1.97207C51.5378 0.883072 50.6549 0 49.5657 0H1.97207C0.882879 0 0 0.883072 0 1.97207V97.0279C0 98.1169 0.882879 99 1.97207 99H97.0279C98.1171 99 99 98.1169 99 97.0279V49.5C99 48.411 98.1171 47.5279 97.0279 47.5279ZM71.0615 28.004V47.5279H27.9383V28.004H71.0615ZM3.94414 3.94414H47.5935V24.0597H3.94414V3.94414ZM3.94414 28.004H23.994V47.5279H3.94414V28.004ZM3.94414 51.4721H47.5935V71.1274H3.94414V51.4721ZM23.9942 95.0559H3.94414V75.0718H23.994V95.0559H23.9942ZM71.0617 95.0559H27.9383V75.0718H71.0617V95.0559ZM95.0559 95.0559H75.0058V75.0718H81.4482C82.5374 75.0718 83.4203 74.1887 83.4203 73.0997C83.4203 72.0107 82.5374 71.1276 81.4482 71.1276H51.5378V51.4721H95.0559V95.0559Z" fill="#80B953"/>
<path d="M89.7311 71.1276H88.5478C87.4586 71.1276 86.5757 72.0107 86.5757 73.0997C86.5757 74.1887 87.4586 75.0718 88.5478 75.0718H89.7311C90.8203 75.0718 91.7032 74.1887 91.7032 73.0997C91.7032 72.0107 90.8203 71.1276 89.7311 71.1276Z" fill="#80B953"/>
</g>
<defs>
<clipPath id="clip0_15_110">
<rect width="99" height="99" fill="white"/>
</clipPath>
</defs>
</svg>
