<svg width="200" height="200" viewBox="0 0 109 126" fill="none" xmlns="http://www.w3.org/2000/svg">
<path d="M102.778 69.9216C95.6362 68.5497 88.2847 69.5722 81.6306 72.8679L78.5271 74.4045C78.5271 74.4045 74.4117 71.6143 73.9205 71.3485C71.3605 69.959 58.7568 66.6373 57.4024 66.1522C54.7187 65.1875 52.5348 62.826 51.4902 59.8581C59.7712 55.6945 64.1601 44.9333 64.8599 34.113V32.4925H68.3794C69.4403 32.4925 70.2984 31.4988 70.2984 30.2742C70.2984 29.0494 69.44 28.0559 68.3794 28.0559H65.9806L65.7151 24.9438C65.0913 17.6329 60.6994 11.4869 54.6063 9.39906L51.108 8.20034V6.68686C51.108 5.46181 50.2488 4.46857 49.189 4.46857H38.2656C37.208 4.46857 36.3498 5.45861 36.3479 6.6812L36.3453 8.18606L32.7671 9.41358C26.6982 11.4958 22.3148 17.6036 21.6657 24.883L21.3828 28.0559H19.0327C17.9731 28.0559 17.1137 29.0496 17.1137 30.2742C17.1137 31.499 17.9733 32.4925 19.0327 32.4925H22.6433L22.6458 34.2804C23.3379 44.9042 27.6771 55.5744 35.8631 59.7843C34.83 62.8157 32.7473 65.1784 30.0035 66.1576C27.6722 66.9894 18.6216 69.2801 18.6216 69.2801C18.6203 69.2801 18.619 69.2801 18.619 69.2801C17.3683 69.6007 6.36502 72.7 5.09576 82.9772C4.33 89.1585 3.43649 95.0249 3.43543 95.0365C3.33665 95.6805 3.49163 96.345 3.85525 96.8475C4.22015 97.35 4.75855 97.6389 5.32569 97.6389H51.4604L51.5434 116.74C51.5462 117.372 51.7818 117.974 52.1916 118.393C52.6242 118.836 53.1969 119.032 53.7673 118.924C56.7266 118.364 66.4689 117.613 75.8208 120.663C76.448 120.867 77.9665 121.224 78.8519 121.427C79.2962 121.528 79.7463 121.555 80.1976 121.509C80.1976 121.509 89.5016 116.696 103.39 119.115C104.592 119.324 105.594 117.971 105.594 116.567V73.7691C105.594 71.8569 104.411 70.2393 102.778 69.9216ZM53.5156 13.6511C58.1321 15.2339 61.4205 19.8354 61.8952 25.3755L62.1251 28.0559H51.108V12.8264L53.5156 13.6511ZM47.27 8.9054V28.0559H40.1461L40.1823 8.9054H47.27ZM25.4845 25.3322C25.9744 19.8209 29.2614 15.2428 33.8592 13.6656L36.3368 12.8163L36.3081 28.0559H25.2422L25.4845 25.3322ZM26.4791 34.113V32.4925H61.0247L61.0272 33.9454C60.2725 45.5456 54.638 57.2468 43.7507 57.2468C32.8635 57.2468 27.2287 45.5458 26.4791 34.113ZM43.7505 61.6836C45.1922 61.6836 46.5441 61.4944 47.8348 61.1897C48.5344 63.3359 49.6253 65.2308 51.0159 66.7805L43.8018 73.5525L36.4718 66.7081C37.8311 65.1671 38.8943 63.2926 39.5766 61.1723C40.8931 61.4902 42.275 61.6836 43.7505 61.6836ZM25.3346 72.0996L30.3197 93.2028H18.2107V74.0061C18.8953 73.7619 23.7441 72.5226 25.3346 72.0996ZM8.89395 83.6072C9.35507 79.8811 11.8974 77.4071 14.3725 75.8515V93.2026H7.59957C7.93445 90.8775 8.43921 87.2843 8.89395 83.6072ZM34.2978 93.2028L29.0679 71.0598C29.8437 70.8287 32.5612 69.7816 33.2308 69.3888L42.5999 78.1338C42.9509 78.4601 43.3782 78.6247 43.8055 78.6247C44.234 78.6247 44.6626 78.4601 45.0149 78.1279C45.0149 78.1279 51.57 72.483 51.4604 72.483V93.2028H34.2978ZM62.084 113.838C59.8227 113.838 57.5424 114.017 55.2986 114.367V74.2283C61.6055 73.0931 68.0548 74.0464 73.9131 76.9464L77.6099 78.779V116.657C77.6099 116.657 67.1278 113.838 62.084 113.838ZM101.756 114.375C94.9639 113.296 88.0373 113.835 81.4481 115.926V77.7868L83.1423 76.9461C89.0019 74.0432 95.4587 73.1044 101.756 74.2251V114.375Z" fill="#80B953"/>
<path d="M69.2944 93.2028H61.6182C60.5587 93.2028 59.6992 94.1966 59.6992 95.4211C59.6992 96.6459 60.5589 97.6394 61.6182 97.6394H69.2944C70.354 97.6394 71.2134 96.6457 71.2134 95.4211C71.2134 94.1963 70.3538 93.2028 69.2944 93.2028Z" fill="#80B953"/>
<path d="M69.2944 102.076H61.6182C60.5587 102.076 59.6992 103.07 59.6992 104.295C59.6992 105.519 60.5589 106.513 61.6182 106.513H69.2944C70.354 106.513 71.2134 105.519 71.2134 104.295C71.2134 103.07 70.3538 102.076 69.2944 102.076Z" fill="#80B953"/>
<path d="M94.8813 93.2028H87.2051C86.1456 93.2028 85.2861 94.1966 85.2861 95.4211C85.2861 96.6459 86.1458 97.6394 87.2051 97.6394H94.8813C95.9409 97.6394 96.8003 96.6457 96.8003 95.4211C96.8003 94.1963 95.9409 93.2028 94.8813 93.2028Z" fill="#80B953"/>
<path d="M69.2944 84.3294H61.6182C60.5587 84.3294 59.6992 85.3232 59.6992 86.5477C59.6992 87.7723 60.5589 88.766 61.6182 88.766H69.2944C70.354 88.766 71.2134 87.7723 71.2134 86.5477C71.2134 85.3232 70.3538 84.3294 69.2944 84.3294Z" fill="#80B953"/>
<path d="M94.8813 84.3294H87.2051C86.1456 84.3294 85.2861 85.3232 85.2861 86.5477C85.2861 87.7723 86.1458 88.766 87.2051 88.766H94.8813C95.9409 88.766 96.8003 87.7723 96.8003 86.5477C96.8003 85.3232 95.9409 84.3294 94.8813 84.3294Z" fill="#80B953"/>
<path d="M89.7639 102.076H87.2051C86.1456 102.076 85.2861 103.07 85.2861 104.295C85.2861 105.519 86.1458 106.513 87.2051 106.513H89.7639C90.8234 106.513 91.6829 105.519 91.6829 104.295C91.6829 103.07 90.8234 102.076 89.7639 102.076Z" fill="#80B953"/>
</svg>
