<svg width="200" height="200" viewBox="0 0 143 143" fill="none" xmlns="http://www.w3.org/2000/svg">
<g clip-path="url(#clip0_15_49)">
<path d="M91.4821 43.8141C92.6454 42.6509 92.6454 40.7645 91.4821 39.6009C90.3189 38.4377 88.4331 38.4377 87.2687 39.6009L51.517 75.3521C50.3537 76.5153 50.3537 78.402 51.517 79.5655C52.0988 80.147 52.8612 80.4381 53.6234 80.4381C54.3856 80.4381 55.1481 80.147 55.7299 79.5655L91.4821 43.8141Z" fill="#80B953"/>
<path d="M62.5621 29.7912C55.9908 29.7912 50.645 35.1367 50.645 41.7077C50.645 48.279 55.9908 53.6247 62.5621 53.6247C69.1336 53.6247 74.4794 48.279 74.4794 41.7077C74.4794 35.1367 69.1331 29.7912 62.5621 29.7912ZM62.5621 47.6662C59.2767 47.6662 56.6035 44.9933 56.6035 41.7077C56.6035 38.4226 59.2767 35.7497 62.5621 35.7497C65.8477 35.7497 68.5211 38.4226 68.5211 41.7077C68.5209 44.9933 65.8477 47.6662 62.5621 47.6662Z" fill="#80B953"/>
<path d="M80.4376 65.5415C73.8663 65.5415 68.5205 70.8875 68.5205 77.4588C68.5205 84.0292 73.8663 89.375 80.4376 89.375C87.0088 89.375 92.3546 84.0295 92.3546 77.4588C92.3546 70.8875 87.0086 65.5415 80.4376 65.5415ZM80.4376 83.4165C77.1522 83.4165 74.4787 80.7439 74.4787 77.4588C74.4787 74.1731 77.1519 71.4997 80.4376 71.4997C83.7229 71.4997 86.3961 74.1729 86.3961 77.4588C86.3963 80.7439 83.7232 83.4165 80.4376 83.4165Z" fill="#80B953"/>
<path d="M128.225 59.5832C130.106 56.5082 130.815 52.8488 130.179 49.2367C129.541 45.6248 127.623 42.428 124.804 40.1822C125.52 36.6496 124.934 32.9685 123.101 29.7912C121.266 26.6148 118.371 24.2673 114.953 23.121C114.417 19.555 112.608 16.2959 109.799 13.9394C107.027 11.6129 103.484 10.3667 99.8625 10.4588C98.1404 7.29132 95.3248 4.84748 91.878 3.59232C90.2349 2.99462 88.5219 2.6913 86.7858 2.6913C84.9229 2.6913 83.0793 3.0435 81.351 3.72051C78.6499 1.33336 75.1685 0 71.4999 0C67.8311 0 64.3499 1.33336 61.6485 3.72079C59.9202 3.0435 58.0766 2.69158 56.2137 2.69158C54.4776 2.69158 52.7647 2.99462 51.1207 3.59288C47.6736 4.84804 44.8583 7.29244 43.1362 10.4594C39.5143 10.3695 35.9722 11.6137 33.2008 13.9394C30.3905 16.297 28.5809 19.5558 28.0455 23.1213C24.6277 24.2673 21.7331 26.615 19.899 29.7915C18.0651 32.9679 17.4789 36.6491 18.195 40.1822C15.3749 42.4288 13.4578 45.6254 12.8221 49.2367C12.1845 52.8483 12.8931 56.5079 14.7744 59.5838C12.8936 62.6586 12.1848 66.3182 12.8219 69.9292C13.4578 73.5411 15.3749 76.7379 18.195 78.9849C17.4794 82.518 18.0651 86.1997 19.899 89.3758C21.7323 92.5517 24.6275 94.8992 28.0455 96.046C28.5812 99.6107 30.3905 102.87 33.2002 105.227C35.9722 107.554 39.5173 108.795 43.1367 108.708C44.8597 111.875 47.6748 114.32 51.1218 115.575C52.7652 116.173 54.4784 116.476 56.2143 116.476C58.0772 116.476 59.9214 116.124 61.6491 115.447C64.3505 117.834 67.8319 119.167 71.5002 119.167C75.1685 119.167 78.6496 117.833 81.3507 115.447C83.079 116.124 84.9226 116.476 86.7855 116.476C88.5217 116.476 90.2349 116.172 91.8785 115.574C95.3248 114.32 98.1401 111.875 99.8631 108.708C103.479 108.794 107.027 107.554 109.799 105.227C112.609 102.87 114.419 99.6104 114.954 96.046C118.372 94.8992 121.267 92.5517 123.101 89.3756C124.935 86.1986 125.52 82.5171 124.804 78.984C127.624 76.7382 129.542 73.5417 130.179 69.9292C130.814 66.3174 130.105 62.658 128.225 59.5832ZM124.311 68.8947C123.845 71.5388 122.233 73.8117 119.89 75.1317C118.609 75.8528 118.046 77.4004 118.563 78.7762C119.51 81.293 119.283 84.0706 117.941 86.3957C116.598 88.7206 114.307 90.3059 111.654 90.7458C110.204 90.986 109.146 92.247 109.161 93.7164C109.19 96.4049 108.026 98.9365 105.969 100.663C104.363 102.011 102.326 102.753 100.232 102.754C99.6776 102.754 99.1199 102.702 98.5744 102.6C97.1313 102.329 95.7046 103.152 95.2167 104.538C94.3229 107.075 92.3634 109.057 89.8413 109.975C87.3338 110.888 84.5137 110.617 82.228 109.266C80.9633 108.519 79.3423 108.804 78.41 109.94C76.7038 112.017 74.1853 113.209 71.5007 113.209C68.8156 113.209 66.2974 112.017 64.5912 109.94C64.0075 109.229 63.1542 108.851 62.2873 108.851C61.7692 108.851 61.2461 108.986 60.7729 109.266C58.488 110.617 55.6666 110.887 53.1601 109.976C50.6373 109.057 48.678 107.076 47.7842 104.539C47.2963 103.153 45.8719 102.329 44.4265 102.6C43.8811 102.702 43.3233 102.754 42.7689 102.754C40.6759 102.754 38.6384 102.012 37.0316 100.663C34.9748 98.9373 33.8113 96.4055 33.8395 93.7172C33.8554 92.2478 32.7972 90.9868 31.3473 90.7466C28.6943 90.307 26.4024 88.7217 25.0604 86.3971C23.7181 84.0717 23.4904 81.2941 24.4361 78.7771C24.9528 77.4018 24.3901 75.8551 23.11 75.1337C20.767 73.8129 19.1563 71.5399 18.6907 68.8956C18.2246 66.2515 18.96 63.5646 20.7098 61.5235C21.6661 60.408 21.6663 58.7618 20.7103 57.646C18.9602 55.6038 18.2243 52.9161 18.691 50.2718C19.1566 47.6279 20.767 45.3547 23.1098 44.0345C24.3898 43.3134 24.9531 41.7661 24.4359 40.3911C23.4899 37.8741 23.7175 35.0967 25.0604 32.7719C26.4029 30.4464 28.694 28.8611 31.3468 28.4224C32.7969 28.1825 33.8551 26.9211 33.8395 25.4518C33.8113 22.7624 34.9746 20.2306 37.0319 18.5048C38.6384 17.1566 40.6756 16.414 42.7695 16.414C43.3239 16.414 43.8816 16.4657 44.4271 16.5676C45.8722 16.8388 47.2971 16.0143 47.7848 14.6282C48.6774 12.0927 50.6367 10.1111 53.1599 9.1925C55.6668 8.28004 58.4877 8.55067 60.7732 9.90191C62.0384 10.6496 63.6595 10.3633 64.5918 9.22769C66.2963 7.15084 68.8147 5.95964 71.5005 5.95964C74.1859 5.95964 76.7043 7.15112 78.4094 9.22797C79.3417 10.3633 80.9616 10.6501 82.228 9.90219C84.5129 8.55151 87.3352 8.28115 89.8408 9.1925C92.3637 10.1114 94.3229 12.0927 95.2167 14.6296C95.7049 16.0154 97.1327 16.8374 98.5747 16.5679C99.1199 16.4657 99.6776 16.414 100.232 16.414C102.325 16.414 104.362 17.1566 105.97 18.5051C108.025 20.2298 109.189 22.7621 109.161 25.4529C109.146 26.922 110.205 28.1827 111.654 28.4226C114.307 28.8614 116.598 30.4467 117.941 32.7719C119.283 35.0978 119.51 37.8746 118.564 40.3905C118.047 41.7663 118.609 43.3136 119.89 44.0351C122.233 45.355 123.845 47.6288 124.311 50.2726C124.777 52.917 124.04 55.6047 122.291 57.6466C121.335 58.7624 121.335 60.4083 122.291 61.5241C124.04 63.5638 124.776 66.2512 124.311 68.8947Z" fill="#80B953"/>
<path d="M83.5442 22.7747C85.1077 23.2858 86.7902 22.4337 87.3018 20.8696C87.8138 19.3058 86.9608 17.6236 85.397 17.1117C77.9512 14.6759 69.9645 14.2397 62.3003 15.8523C42.5434 20.0088 27.9769 36.992 26.8771 57.152C26.7874 58.7951 28.0468 60.1994 29.6893 60.289C29.7446 60.2921 29.7996 60.2935 29.8544 60.2935C31.4254 60.2935 32.7401 59.0643 32.8266 57.4765C33.7796 40.0042 46.4038 25.2853 63.5267 21.6829C70.1689 20.2859 77.0905 20.6632 83.5442 22.7747Z" fill="#80B953"/>
<path d="M113.31 58.8775C111.663 58.7878 110.263 60.0472 110.173 61.69C109.22 79.1622 96.5957 93.8809 79.4723 97.483C72.8312 98.8803 65.9091 98.5033 59.4554 96.3915C57.8922 95.8807 56.2094 96.7325 55.6975 98.296C55.1855 99.8598 56.0388 101.542 57.6023 102.054C62.1045 103.527 66.8026 104.269 71.5084 104.269C74.5869 104.269 77.6692 103.952 80.6995 103.314C100.456 99.1577 115.023 82.1744 116.122 62.0145C116.212 60.3717 114.953 58.9671 113.31 58.8775Z" fill="#80B953"/>
<path d="M33.4874 67.0019C33.1718 65.387 31.6102 64.3335 29.9928 64.6486C28.3782 64.9639 27.3244 66.5285 27.6398 68.1431C27.8001 68.9648 27.9889 69.8044 28.2014 70.6392C28.5447 71.9871 29.7565 72.8839 31.0868 72.8839C31.3298 72.8839 31.5773 72.8537 31.8239 72.7912C33.4184 72.3854 34.382 70.7635 33.9764 69.169C33.7904 68.4431 33.6265 67.7139 33.4874 67.0019Z" fill="#80B953"/>
<path d="M109.512 52.1643C109.789 53.5865 111.036 54.5732 112.433 54.5732C112.622 54.5732 112.814 54.5551 113.007 54.5171C114.622 54.2018 115.675 52.6371 115.36 51.0225C115.199 50.2 115.01 49.3604 114.798 48.5267C114.392 46.9322 112.772 45.9678 111.176 46.3745C109.581 46.7803 108.618 48.4019 109.023 49.9967C109.208 50.722 109.373 51.4512 109.512 52.1643Z" fill="#80B953"/>
<path d="M101.292 137.042H41.7078C40.0627 137.042 38.7285 138.376 38.7285 140.021C38.7285 141.666 40.0627 143 41.7078 143H101.292C102.937 143 104.271 141.667 104.271 140.021C104.271 138.376 102.937 137.042 101.292 137.042Z" fill="#80B953"/>
</g>
<defs>
<clipPath id="clip0_15_49">
<rect width="143" height="143" fill="white"/>
</clipPath>
</defs>
</svg>
