<svg width="200" height="200" viewBox="0 0 138 139" fill="none" xmlns="http://www.w3.org/2000/svg">
<g clip-path="url(#clip0_15_47)">
<path d="M71.208 55.6C70.61 55.6185 70.035 55.8687 69.6118 56.3043L57.477 68.4899L50.002 60.9839C47.909 58.7877 44.528 62.1793 46.713 64.2829L55.8348 73.4476C56.741 74.3604 58.213 74.3604 59.1238 73.4476L72.9008 59.6078C74.4188 58.1252 73.301 55.6 71.2126 55.6H71.208ZM2.3 74.1333H16.1C17.3742 74.1333 18.4 75.1666 18.4 76.45C18.4 77.7334 17.3742 78.7667 16.1 78.7667H2.3C1.0258 78.7667 0 77.7334 0 76.45C0 75.1666 1.0258 74.1333 2.3 74.1333ZM2.3 55.6H16.1C17.3742 55.6 18.4 56.6332 18.4 57.9167C18.4 59.2001 17.3742 60.2333 16.1 60.2333H2.3C1.0258 60.2333 0 59.2001 0 57.9167C0 56.6332 1.0258 55.6 2.3 55.6ZM2.3 37.0667H16.1C17.3742 37.0667 18.4 38.0999 18.4 39.3833C18.4 40.6668 17.3742 41.7 16.1 41.7H2.3C1.0258 41.7 0 40.6668 0 39.3833C0 38.0999 1.0258 37.0667 2.3 37.0667ZM112.7 88.0333C106.375 88.0333 101.2 93.2458 101.2 99.6167C101.2 105.988 106.375 111.2 112.7 111.2C119.025 111.2 124.2 105.988 124.2 99.6167C124.2 93.2458 119.025 88.0333 112.7 88.0333ZM112.7 92.6667C116.536 92.6667 119.6 95.7525 119.6 99.6167C119.6 103.481 116.536 106.567 112.7 106.567C108.864 106.567 105.8 103.481 105.8 99.6167C105.8 95.7525 108.864 92.6667 112.7 92.6667ZM52.9 88.0333C46.575 88.0333 41.4 93.2458 41.4 99.6167C41.4 105.988 46.575 111.2 52.9 111.2C59.225 111.2 64.4 105.988 64.4 99.6167C64.4 93.2458 59.225 88.0333 52.9 88.0333ZM52.9 92.6667C56.7364 92.6667 59.8 95.7525 59.8 99.6167C59.8 103.481 56.7364 106.567 52.9 106.567C49.0636 106.567 46 103.481 46 99.6167C46 95.7525 49.0636 92.6667 52.9 92.6667ZM29.9 27.8C26.1188 27.8 23 30.9414 23 34.75V85.7167C23 89.5253 26.1188 92.6667 29.9 92.6667H39.1C42.2096 92.713 42.2096 87.987 39.1 88.0333H29.9C28.5844 88.0333 27.6 87.0418 27.6 85.7167V34.75C27.6 33.4249 28.5844 32.4333 29.9 32.4333H89.7C91.0156 32.4333 92 33.4249 92 34.75V88.0333H66.7C63.664 88.0333 63.7192 92.713 66.7 92.6667H98.9C101.936 92.6667 101.908 88.0333 98.9 88.0333H96.6V46.3333H116.044L133.4 73.6515V85.7167C133.4 87.0418 132.416 88.0333 131.1 88.0333H126.5C123.492 88.0333 123.492 92.6667 126.5 92.6667H131.1C134.881 92.6667 138 89.5253 138 85.7167V72.975C138 72.5348 137.876 72.0947 137.641 71.724L119.241 42.7657C118.818 42.1031 118.091 41.7 117.3 41.7H96.6V34.75C96.6 30.9414 93.4812 27.8 89.7 27.8H29.9Z" fill="#80B953"/>
</g>
<defs>
<clipPath id="clip0_15_47">
<rect width="138" height="139" fill="white"/>
</clipPath>
</defs>
</svg>
